{"asset":{"version":"2.0","generator":"Blockbench 5.1.3 glTF exporter"},"scenes":[{"nodes":[0],"name":"blockbench_export"}],"scene":0,"nodes":[{"rotation":[-1,0,0,6.123233995736766e-17],"translation":[0,0.2124999999999999,0],"name":"cylinder","mesh":0}],"bufferViews":[{"buffer":0,"byteOffset":0,"byteLength":11520,"target":34962,"byteStride":12},{"buffer":0,"byteOffset":11520,"byteLength":11520,"target":34962,"byteStride":12},{"buffer":0,"byteOffset":23040,"byteLength":7680,"target":34962,"byteStride":8},{"buffer":0,"byteOffset":30720,"byteLength":2640,"target":34963}],"buffers":[{"byteLength":33360,"uri":"data:application/octet-stream;base64,"}],"accessors":[{"bufferView":0,"componentType":5126,"count":960,"max":[0.15625,0.1875,0.15625],"min":[-0.15625,-1.0078125,-0.15625],"type":"VEC3"},{"bufferView":1,"componentType":5126,"count":960,"max":[1,1,1],"min":[-1,-1,-1],"type":"VEC3"},{"bufferView":2,"componentType":5126,"count":960,"max":[0.9209718704223633,0.9379812479019165],"min":[0,0],"type":"VEC2"},{"bufferView":3,"componentType":5123,"count":1320,"max":[959],"min":[0],"type":"SCALAR"}],"materials":[{"pbrMetallicRoughness":{"metallicFactor":0,"roughnessFactor":1,"baseColorTexture":{"index":0}},"alphaMode":"MASK","alphaCutoff":0.05,"doubleSided":true}],"textures":[{"sampler":0,"source":0,"name":"texture"}],"samplers":[{"magFilter":9728,"minFilter":9728,"wrapS":10497,"wrapT":10497}],"images":[{"mimeType":"image/png","uri":"data:image/png;base64,"}],"meshes":[{"primitives":[{"mode":4,"attributes":{"POSITION":0,"NORMAL":1,"TEXCOORD_0":2},"indices":3,"material":0}]}]}