{"asset":{"version":"2.0","generator":"Blockbench 5.1.4 glTF exporter"},"scenes":[{"nodes":[6],"name":"blockbench_export"}],"scene":0,"nodes":[{"rotation":[-0.2705980500730985,0.27059805007309845,0.6532814824381882,0.6532814824381883],"name":"guard","mesh":0},{"rotation":[-0.6935199226610737,0.1379496896414715,-0.13794968964147147,0.6935199226610738],"translation":[0,0,-0.0890625],"name":"blade","mesh":1},{"translation":[0.4125000000000001,-0.037499999999999645,0],"name":"pommel","mesh":2},{"rotation":[0,-0.7071067811865475,0,0.7071067811865476],"translation":[0,-0.037499999999999645,0.6984375],"name":"pommel","mesh":3},{"translation":[-0.4125000000000001,-0.037499999999999645,0],"name":"pommel","mesh":4},{"rotation":[0.7071067811865475,0,0,0.7071067811865476],"translation":[0,0,0.01875],"name":"handle","mesh":5},{"rotation":[4.329780281177466e-17,0.7071067811865475,0.7071067811865476,4.329780281177467e-17],"translation":[0,5.25,0],"name":"Sword","children":[0,1,2,3,4,5]}],"bufferViews":[{"buffer":0,"byteOffset":0,"byteLength":1152,"target":34962,"byteStride":12},{"buffer":0,"byteOffset":1152,"byteLength":1152,"target":34962,"byteStride":12},{"buffer":0,"byteOffset":2304,"byteLength":768,"target":34962,"byteStride":8},{"buffer":0,"byteOffset":3072,"byteLength":252,"target":34963},{"buffer":0,"byteOffset":3324,"byteLength":1344,"target":34962,"byteStride":12},{"buffer":0,"byteOffset":4668,"byteLength":1344,"target":34962,"byteStride":12},{"buffer":0,"byteOffset":6012,"byteLength":896,"target":34962,"byteStride":8},{"buffer":0,"byteOffset":6908,"byteLength":288,"target":34963},{"buffer":0,"byteOffset":7196,"byteLength":1536,"target":34962,"byteStride":12},{"buffer":0,"byteOffset":8732,"byteLength":1536,"target":34962,"byteStride":12},{"buffer":0,"byteOffset":10268,"byteLength":1024,"target":34962,"byteStride":8},{"buffer":0,"byteOffset":11292,"byteLength":336,"target":34963},{"buffer":0,"byteOffset":11628,"byteLength":1536,"target":34962,"byteStride":12},{"buffer":0,"byteOffset":13164,"byteLength":1536,"target":34962,"byteStride":12},{"buffer":0,"byteOffset":14700,"byteLength":1024,"target":34962,"byteStride":8},{"buffer":0,"byteOffset":15724,"byteLength":336,"target":34963},{"buffer":0,"byteOffset":16060,"byteLength":1536,"target":34962,"byteStride":12},{"buffer":0,"byteOffset":17596,"byteLength":1536,"target":34962,"byteStride":12},{"buffer":0,"byteOffset":19132,"byteLength":1024,"target":34962,"byteStride":8},{"buffer":0,"byteOffset":20156,"byteLength":336,"target":34963},{"buffer":0,"byteOffset":20492,"byteLength":960,"target":34962,"byteStride":12},{"buffer":0,"byteOffset":21452,"byteLength":960,"target":34962,"byteStride":12},{"buffer":0,"byteOffset":22412,"byteLength":640,"target":34962,"byteStride":8},{"buffer":0,"byteOffset":23052,"byteLength":192,"target":34963}],"buffers":[{"byteLength":23244,"uri":"data:application/octet-stream;base64,"}],"accessors":[{"bufferView":0,"componentType":5126,"count":96,"max":[0.2659693658351898,0.39375001192092896,0.1037912517786026],"min":[-0.1037912517786026,-0.39375001192092896,-0.2659693658351898],"type":"VEC3"},{"bufferView":1,"componentType":5126,"count":96,"max":[1,1,1],"min":[-1,-1,-1],"type":"VEC3"},{"bufferView":2,"componentType":5126,"count":96,"max":[0.265625,0.234375],"min":[0.00005140624853083864,0],"type":"VEC2"},{"bufferView":3,"componentType":5123,"count":126,"max":[95],"min":[0],"type":"SCALAR"},{"bufferView":4,"componentType":5126,"count":112,"max":[0.12411375343799591,5.15625,0.05605375021696091],"min":[-0.12411375343799591,-0.05624999850988388,-0.05605375021696091],"type":"VEC3"},{"bufferView":5,"componentType":5126,"count":112,"max":[0.8864502310752869,0.3934080898761749,0.987007200717926],"min":[-0.8864502310752869,-1,-0.987007200717926],"type":"VEC3"},{"bufferView":6,"componentType":5126,"count":112,"max":[0.265625,0.6524695158004761],"min":[0,0],"type":"VEC2"},{"bufferView":7,"componentType":5123,"count":144,"max":[111],"min":[0],"type":"SCALAR"},{"bufferView":8,"componentType":5126,"count":128,"max":[0.07500000298023224,0.07500000298023224,0.07500000298023224],"min":[-0.03750000149011612,0,-0.07500000298023224],"type":"VEC3"},{"bufferView":9,"componentType":5126,"count":128,"max":[1,1,1],"min":[-1,-1,-1],"type":"VEC3"},{"bufferView":10,"componentType":5126,"count":128,"max":[0.2734375,0.2734375],"min":[0,0.078125],"type":"VEC2"},{"bufferView":11,"componentType":5123,"count":168,"max":[127],"min":[0],"type":"SCALAR"},{"bufferView":12,"componentType":5126,"count":128,"max":[0.15000000596046448,0.07500000298023224,0.07500000298023224],"min":[-0.03750000149011612,0,-0.07500000298023224],"type":"VEC3"},{"bufferView":13,"componentType":5126,"count":128,"max":[1,1,1],"min":[-1,-1,-1],"type":"VEC3"},{"bufferView":14,"componentType":5126,"count":128,"max":[0.27289608120918274,0.2734375],"min":[0.19585390388965607,0.000024318695068359375],"type":"VEC2"},{"bufferView":15,"componentType":5123,"count":168,"max":[127],"min":[0],"type":"SCALAR"},{"bufferView":16,"componentType":5126,"count":128,"max":[0.03750000149011612,0.07500000298023224,0.07500000298023224],"min":[-0.07500000298023224,0,-0.07500000298023224],"type":"VEC3"},{"bufferView":17,"componentType":5126,"count":128,"max":[1,1,1],"min":[-1,-1,-1],"type":"VEC3"},{"bufferView":18,"componentType":5126,"count":128,"max":[0.28125,0.265625],"min":[0.05525093898177147,0],"type":"VEC2"},{"bufferView":19,"componentType":5123,"count":168,"max":[127],"min":[0],"type":"SCALAR"},{"bufferView":20,"componentType":5126,"count":80,"max":[0.046875,0.65625,0.03750000149011612],"min":[-0.046875,0,-0.03750000149011612],"type":"VEC3"},{"bufferView":21,"componentType":5126,"count":80,"max":[0.9999964237213135,1,0.9999976754188538],"min":[-0.9999964237213135,-1,-0.9999976754188538],"type":"VEC3"},{"bufferView":22,"componentType":5126,"count":80,"max":[0.26171875,0.296875],"min":[0.0014789062552154064,0],"type":"VEC2"},{"bufferView":23,"componentType":5123,"count":96,"max":[79],"min":[0],"type":"SCALAR"}],"materials":[{"pbrMetallicRoughness":{"metallicFactor":0,"roughnessFactor":1,"baseColorTexture":{"index":0}},"alphaMode":"MASK","alphaCutoff":0.05,"doubleSided":true}],"textures":[{"sampler":0,"source":0,"name":"fireknightsword.png"}],"samplers":[{"magFilter":9728,"minFilter":9728,"wrapS":10497,"wrapT":10497}],"images":[{"mimeType":"image/png","uri":"data:image/png;base64,"}],"meshes":[{"primitives":[{"mode":4,"attributes":{"POSITION":0,"NORMAL":1,"TEXCOORD_0":2},"indices":3,"material":0}]},{"primitives":[{"mode":4,"attributes":{"POSITION":4,"NORMAL":5,"TEXCOORD_0":6},"indices":7,"material":0}]},{"primitives":[{"mode":4,"attributes":{"POSITION":8,"NORMAL":9,"TEXCOORD_0":10},"indices":11,"material":0}]},{"primitives":[{"mode":4,"attributes":{"POSITION":12,"NORMAL":13,"TEXCOORD_0":14},"indices":15,"material":0}]},{"primitives":[{"mode":4,"attributes":{"POSITION":16,"NORMAL":17,"TEXCOORD_0":18},"indices":19,"material":0}]},{"primitives":[{"mode":4,"attributes":{"POSITION":20,"NORMAL":21,"TEXCOORD_0":22},"indices":23,"material":0}]}]}