{"asset":{"version":"2.0","generator":"Blockbench 5.1.4 glTF exporter"},"scenes":[{"nodes":[0],"name":"blockbench_export"}],"scene":0,"nodes":[{"translation":[0,0.7125,0.0625],"name":"LongHaftSword","mesh":0}],"bufferViews":[{"buffer":0,"byteOffset":0,"byteLength":9552,"target":34962,"byteStride":12},{"buffer":0,"byteOffset":9552,"byteLength":9552,"target":34962,"byteStride":12},{"buffer":0,"byteOffset":19104,"byteLength":6368,"target":34962,"byteStride":8},{"buffer":0,"byteOffset":25472,"byteLength":2352,"target":34963}],"buffers":[{"byteLength":27824,"uri":"data:application/octet-stream;base64,"}],"accessors":[{"bufferView":0,"componentType":5126,"count":796,"max":[0.32574623823165894,2.6896843910217285,0.04754500091075897],"min":[-0.32574623823165894,-1.0290656089782715,-0.04620499908924103],"type":"VEC3"},{"bufferView":1,"componentType":5126,"count":796,"max":[0.9788179993629456,1,1],"min":[-0.9788179993629456,-1,-1],"type":"VEC3"},{"bufferView":2,"componentType":5126,"count":796,"max":[0.6469811201095581,0.769562840461731],"min":[0.0009765625,0],"type":"VEC2"},{"bufferView":3,"componentType":5123,"count":1176,"max":[795],"min":[0],"type":"SCALAR"}],"materials":[{"pbrMetallicRoughness":{"metallicFactor":0,"roughnessFactor":1,"baseColorTexture":{"index":0}},"alphaMode":"MASK","alphaCutoff":0.05,"doubleSided":true}],"textures":[{"sampler":0,"source":0,"name":"longhaftsword.png"}],"samplers":[{"magFilter":9728,"minFilter":9728,"wrapS":10497,"wrapT":10497}],"images":[{"mimeType":"image/png","uri":"data:image/png;base64,"}],"meshes":[{"primitives":[{"mode":4,"attributes":{"POSITION":0,"NORMAL":1,"TEXCOORD_0":2},"indices":3,"material":0}]}]}