{"asset":{"version":"2.0","generator":"Blockbench 5.1.4 glTF exporter"},"scenes":[{"nodes":[2],"name":"blockbench_export"}],"scene":0,"nodes":[{"rotation":[-0.6532814824381883,-0.6532814824381882,-0.2705980500730985,0.27059805007309856],"translation":[0.140625,8.296875,0.1875],"name":"plane","mesh":0},{"translation":[0,7.1875,0],"name":"cylinder","mesh":1},{"rotation":[0,0.7071067811865475,0,0.7071067811865476],"name":"bone","children":[0,1]}],"bufferViews":[{"buffer":0,"byteOffset":0,"byteLength":5232,"target":34962,"byteStride":12},{"buffer":0,"byteOffset":5232,"byteLength":5232,"target":34962,"byteStride":12},{"buffer":0,"byteOffset":10464,"byteLength":3488,"target":34962,"byteStride":8},{"buffer":0,"byteOffset":13952,"byteLength":1152,"target":34963},{"buffer":0,"byteOffset":15104,"byteLength":1344,"target":34962,"byteStride":12},{"buffer":0,"byteOffset":16448,"byteLength":1344,"target":34962,"byteStride":12},{"buffer":0,"byteOffset":17792,"byteLength":896,"target":34962,"byteStride":8},{"buffer":0,"byteOffset":18688,"byteLength":288,"target":34963}],"buffers":[{"byteLength":18976,"uri":"data:application/octet-stream;base64,"}],"accessors":[{"bufferView":0,"componentType":5126,"count":436,"max":[2.043980598449707,0.015625,2.30914568901062],"min":[-0.7711881399154663,-0.296875,-0.6300824880599976],"type":"VEC3"},{"bufferView":1,"componentType":5126,"count":436,"max":[0.9246764779090881,1,0.9743912816047668],"min":[-0.9743911623954773,-1,-0.9010024666786194],"type":"VEC3"},{"bufferView":2,"componentType":5126,"count":436,"max":[0.5391148924827576,0.54296875],"min":[0.171875,0],"type":"VEC2"},{"bufferView":3,"componentType":5123,"count":576,"max":[435],"min":[0],"type":"SCALAR"},{"bufferView":4,"componentType":5126,"count":112,"max":[0.08281250298023224,0.5,0.15625],"min":[-0.08281250298023224,-7.171875,-0.15625],"type":"VEC3"},{"bufferView":5,"componentType":5126,"count":112,"max":[1,1,1],"min":[-1,-1,-1],"type":"VEC3"},{"bufferView":6,"componentType":5126,"count":112,"max":[0.4788968861103058,0.953125],"min":[0,0],"type":"VEC2"},{"bufferView":7,"componentType":5123,"count":144,"max":[111],"min":[0],"type":"SCALAR"}],"materials":[{"pbrMetallicRoughness":{"metallicFactor":0,"roughnessFactor":1,"baseColorTexture":{"index":0}},"alphaMode":"MASK","alphaCutoff":0.05,"doubleSided":true}],"textures":[{"sampler":0,"source":0,"name":"texture"}],"samplers":[{"magFilter":9728,"minFilter":9728,"wrapS":10497,"wrapT":10497}],"images":[{"mimeType":"image/png","uri":"data:image/png;base64,"}],"meshes":[{"primitives":[{"mode":4,"attributes":{"POSITION":0,"NORMAL":1,"TEXCOORD_0":2},"indices":3,"material":0}]},{"primitives":[{"mode":4,"attributes":{"POSITION":4,"NORMAL":5,"TEXCOORD_0":6},"indices":7,"material":0}]}]}