{"asset":{"version":"2.0","generator":"Blockbench 5.1.4 glTF exporter"},"scenes":[{"nodes":[0,1],"name":"blockbench_export"}],"scene":0,"nodes":[{"rotation":[-6.465040354131841e-18,-0.5555702330196022,-0.8314696123025452,6.93237072389459e-17],"translation":[0,0.875,0],"name":"Cube_0","mesh":0},{"rotation":[2.465190328815662e-32,-0.7071067811865474,-0.7071067811865477,8.659560562354933e-17],"translation":[0,0.875,0],"name":"Cube.001_0","mesh":1}],"bufferViews":[{"buffer":0,"byteOffset":0,"byteLength":15408,"target":34962,"byteStride":12},{"buffer":0,"byteOffset":15408,"byteLength":15408,"target":34962,"byteStride":12},{"buffer":0,"byteOffset":30816,"byteLength":10272,"target":34962,"byteStride":8},{"buffer":0,"byteOffset":41088,"byteLength":2568,"target":34963},{"buffer":0,"byteOffset":43656,"byteLength":6048,"target":34962,"byteStride":12},{"buffer":0,"byteOffset":49704,"byteLength":6048,"target":34962,"byteStride":12},{"buffer":0,"byteOffset":55752,"byteLength":4032,"target":34962,"byteStride":8},{"buffer":0,"byteOffset":59784,"byteLength":1008,"target":34963}],"buffers":[{"byteLength":60792,"uri":"data:application/octet-stream;base64,"}],"accessors":[{"bufferView":0,"componentType":5126,"count":1284,"max":[0.6796600222587585,0.976580023765564,1.0308899879455566],"min":[-0.6796600222587585,-0.9770900011062622,-0.5259799957275391],"type":"VEC3"},{"bufferView":1,"componentType":5126,"count":1284,"max":[0.9975873231887817,0.9820316433906555,0.999015748500824],"min":[-0.9975873231887817,-0.9999659061431885,-0.9997404217720032],"type":"VEC3"},{"bufferView":2,"componentType":5126,"count":1284,"max":[1,1],"min":[0,0],"type":"VEC2"},{"bufferView":3,"componentType":5123,"count":1284,"max":[1283],"min":[0],"type":"SCALAR"},{"bufferView":4,"componentType":5126,"count":504,"max":[0.5947700142860413,-0.011620000004768372,-0.07998000085353851],"min":[-0.5947700142860413,-0.9467999935150146,-0.9572200179100037],"type":"VEC3"},{"bufferView":5,"componentType":5126,"count":504,"max":[0.9759626984596252,0.9925732612609863,0.9287202954292297],"min":[-0.9759626984596252,-0.9987772107124329,-0.8917266726493835],"type":"VEC3"},{"bufferView":6,"componentType":5126,"count":504,"max":[1,1],"min":[0,0],"type":"VEC2"},{"bufferView":7,"componentType":5123,"count":504,"max":[503],"min":[0],"type":"SCALAR"}],"materials":[{"pbrMetallicRoughness":{"metallicFactor":0,"roughnessFactor":1},"alphaMode":"MASK","alphaCutoff":0.05,"doubleSided":true}],"meshes":[{"primitives":[{"mode":4,"attributes":{"POSITION":0,"NORMAL":1,"TEXCOORD_0":2},"indices":3,"material":0}]},{"primitives":[{"mode":4,"attributes":{"POSITION":4,"NORMAL":5,"TEXCOORD_0":6},"indices":7,"material":0}]}]}