{"asset":{"version":"2.0","generator":"Blockbench 5.1.4 glTF exporter"},"scenes":[{"nodes":[7],"name":"blockbench_export"}],"scene":0,"nodes":[{"rotation":[-0.7071067811865475,0,0,0.7071067811865476],"translation":[0,0.125,0],"name":"mesh","mesh":0},{"rotation":[-0.6532814824381882,0.2705980500730985,-0.27059805007309845,0.6532814824381883],"translation":[0,0.125,-0.203125],"name":"cylinder","mesh":1},{"rotation":[0,0,0.7071067811865475,0.7071067811865476],"translation":[-0.125,0.125,-0.0625],"name":"cylinder","mesh":2},{"rotation":[0,0,-0.7071067811865475,0.7071067811865476],"translation":[0.125,0.125,-0.0625],"name":"cylinder","mesh":3},{"rotation":[-0.7071067811865475,0,0,0.7071067811865476],"translation":[0,0.125,0.5625],"name":"cylinder","mesh":4},{"rotation":[0,0,0.7071067811865475,0.7071067811865476],"translation":[-0.09375,0.125,-0.3125],"name":"cylinder","mesh":5},{"rotation":[0,0,-0.7071067811865475,0.7071067811865476],"translation":[0.09375,0.125,-0.3125],"name":"cylinder","mesh":6},{"rotation":[0.7071067811865475,0,0,0.7071067811865476],"translation":[0,1.6875,-0.125],"name":"group","children":[0,1,2,3,4,5,6]}],"bufferViews":[{"buffer":0,"byteOffset":0,"byteLength":1344,"target":34962,"byteStride":12},{"buffer":0,"byteOffset":1344,"byteLength":1344,"target":34962,"byteStride":12},{"buffer":0,"byteOffset":2688,"byteLength":896,"target":34962,"byteStride":8},{"buffer":0,"byteOffset":3584,"byteLength":336,"target":34963},{"buffer":0,"byteOffset":3920,"byteLength":480,"target":34962,"byteStride":12},{"buffer":0,"byteOffset":4400,"byteLength":480,"target":34962,"byteStride":12},{"buffer":0,"byteOffset":4880,"byteLength":320,"target":34962,"byteStride":8},{"buffer":0,"byteOffset":5200,"byteLength":96,"target":34963},{"buffer":0,"byteOffset":5296,"byteLength":1728,"target":34962,"byteStride":12},{"buffer":0,"byteOffset":7024,"byteLength":1728,"target":34962,"byteStride":12},{"buffer":0,"byteOffset":8752,"byteLength":1152,"target":34962,"byteStride":8},{"buffer":0,"byteOffset":9904,"byteLength":384,"target":34963},{"buffer":0,"byteOffset":10288,"byteLength":1728,"target":34962,"byteStride":12},{"buffer":0,"byteOffset":12016,"byteLength":1728,"target":34962,"byteStride":12},{"buffer":0,"byteOffset":13744,"byteLength":1152,"target":34962,"byteStride":8},{"buffer":0,"byteOffset":14896,"byteLength":384,"target":34963},{"buffer":0,"byteOffset":15280,"byteLength":3648,"target":34962,"byteStride":12},{"buffer":0,"byteOffset":18928,"byteLength":3648,"target":34962,"byteStride":12},{"buffer":0,"byteOffset":22576,"byteLength":2432,"target":34962,"byteStride":8},{"buffer":0,"byteOffset":25008,"byteLength":864,"target":34963},{"buffer":0,"byteOffset":25872,"byteLength":1344,"target":34962,"byteStride":12},{"buffer":0,"byteOffset":27216,"byteLength":1344,"target":34962,"byteStride":12},{"buffer":0,"byteOffset":28560,"byteLength":896,"target":34962,"byteStride":8},{"buffer":0,"byteOffset":29456,"byteLength":288,"target":34963},{"buffer":0,"byteOffset":29744,"byteLength":1344,"target":34962,"byteStride":12},{"buffer":0,"byteOffset":31088,"byteLength":1344,"target":34962,"byteStride":12},{"buffer":0,"byteOffset":32432,"byteLength":896,"target":34962,"byteStride":8},{"buffer":0,"byteOffset":33328,"byteLength":288,"target":34963}],"buffers":[{"byteLength":33616,"uri":"data:application/octet-stream;base64,"}],"accessors":[{"bufferView":0,"componentType":5126,"count":112,"max":[0.14374999701976776,0.5625,0.08124999701976776],"min":[-0.14374999701976776,-0.0625,-0.08124999701976776],"type":"VEC3"},{"bufferView":1,"componentType":5126,"count":112,"max":[0.848307728767395,0.8164966106414795,0.8744746446609497],"min":[-0.848307728767395,-1,-0.8744746446609497],"type":"VEC3"},{"bufferView":2,"componentType":5126,"count":112,"max":[0.3578124940395355,0.27031248807907104],"min":[0.1171875,0],"type":"VEC2"},{"bufferView":3,"componentType":5123,"count":168,"max":[111],"min":[0],"type":"SCALAR"},{"bufferView":4,"componentType":5126,"count":40,"max":[0.08404187858104706,5.796875,0.08404187858104706],"min":[-0.08404187858104706,0,-0.08404187858104706],"type":"VEC3"},{"bufferView":5,"componentType":5126,"count":40,"max":[0.7065885066986084,1,0.7065885066986084],"min":[-0.7065885066986084,-1,-0.7065885066986084],"type":"VEC3"},{"bufferView":6,"componentType":5126,"count":40,"max":[0.3813796937465668,0.7265625],"min":[0,0],"type":"VEC2"},{"bufferView":7,"componentType":5123,"count":48,"max":[39],"min":[0],"type":"SCALAR"},{"bufferView":8,"componentType":5126,"count":144,"max":[0.078125,0.6733762621879578,0.125],"min":[-0.078125,0,-0.5625],"type":"VEC3"},{"bufferView":9,"componentType":5126,"count":144,"max":[0.9930216073989868,0.6699016690254211,0.8238933682441711],"min":[-0.9929155707359314,-1,-0.8890596628189087],"type":"VEC3"},{"bufferView":10,"componentType":5126,"count":144,"max":[0.41399532556533813,0.4453125],"min":[0.17997117340564728,0],"type":"VEC2"},{"bufferView":11,"componentType":5123,"count":192,"max":[143],"min":[0],"type":"SCALAR"},{"bufferView":12,"componentType":5126,"count":144,"max":[0.078125,0.6733762621879578,0.125],"min":[-0.078125,0,-0.5625],"type":"VEC3"},{"bufferView":13,"componentType":5126,"count":144,"max":[0.9929155707359314,0.6699016690254211,0.8238933682441711],"min":[-0.9930216073989868,-1,-0.8890596628189087],"type":"VEC3"},{"bufferView":14,"componentType":5126,"count":144,"max":[0.38637983798980713,0.4453125],"min":[0.12505796551704407,0],"type":"VEC2"},{"bufferView":15,"componentType":5123,"count":192,"max":[143],"min":[0],"type":"SCALAR"},{"bufferView":16,"componentType":5126,"count":304,"max":[0.10625000298023224,0.5,0.078125],"min":[-0.10625000298023224,-1.125,-0.078125],"type":"VEC3"},{"bufferView":17,"componentType":5126,"count":304,"max":[0.8970208764076233,1,0.946273684501648],"min":[-0.8970208764076233,-1,-0.9462917447090149],"type":"VEC3"},{"bufferView":18,"componentType":5126,"count":304,"max":[0.39026719331741333,0.47676408290863037],"min":[0.015625,0],"type":"VEC2"},{"bufferView":19,"componentType":5123,"count":432,"max":[303],"min":[0],"type":"SCALAR"},{"bufferView":20,"componentType":5126,"count":112,"max":[0.046875,0.28666937351226807,0.125],"min":[-0.046875,0,-0.31047001481056213],"type":"VEC3"},{"bufferView":21,"componentType":5126,"count":112,"max":[0.9925873875617981,0.8128696084022522,0.7264419794082642],"min":[-0.9915353059768677,-1,-0.7244912385940552],"type":"VEC3"},{"bufferView":22,"componentType":5126,"count":112,"max":[0.3941914737224579,0.3125],"min":[0.12663297355175018,0.015625],"type":"VEC2"},{"bufferView":23,"componentType":5123,"count":144,"max":[111],"min":[0],"type":"SCALAR"},{"bufferView":24,"componentType":5126,"count":112,"max":[0.046875,0.28666937351226807,0.125],"min":[-0.046875,0,-0.31047001481056213],"type":"VEC3"},{"bufferView":25,"componentType":5126,"count":112,"max":[0.9915353059768677,0.8128696084022522,0.7264419794082642],"min":[-0.9925873875617981,-1,-0.7244912385940552],"type":"VEC3"},{"bufferView":26,"componentType":5126,"count":112,"max":[0.3941914737224579,0.3984375],"min":[0.12628890573978424,0.046875],"type":"VEC2"},{"bufferView":27,"componentType":5123,"count":144,"max":[111],"min":[0],"type":"SCALAR"}],"materials":[{"pbrMetallicRoughness":{"metallicFactor":0,"roughnessFactor":1,"baseColorTexture":{"index":0}},"alphaMode":"MASK","alphaCutoff":0.05,"doubleSided":true}],"textures":[{"sampler":0,"source":0,"name":"yurisword.png"}],"samplers":[{"magFilter":9728,"minFilter":9728,"wrapS":10497,"wrapT":10497}],"images":[{"mimeType":"image/png","uri":"data:image/png;base64,"}],"meshes":[{"primitives":[{"mode":4,"attributes":{"POSITION":0,"NORMAL":1,"TEXCOORD_0":2},"indices":3,"material":0}]},{"primitives":[{"mode":4,"attributes":{"POSITION":4,"NORMAL":5,"TEXCOORD_0":6},"indices":7,"material":0}]},{"primitives":[{"mode":4,"attributes":{"POSITION":8,"NORMAL":9,"TEXCOORD_0":10},"indices":11,"material":0}]},{"primitives":[{"mode":4,"attributes":{"POSITION":12,"NORMAL":13,"TEXCOORD_0":14},"indices":15,"material":0}]},{"primitives":[{"mode":4,"attributes":{"POSITION":16,"NORMAL":17,"TEXCOORD_0":18},"indices":19,"material":0}]},{"primitives":[{"mode":4,"attributes":{"POSITION":20,"NORMAL":21,"TEXCOORD_0":22},"indices":23,"material":0}]},{"primitives":[{"mode":4,"attributes":{"POSITION":24,"NORMAL":25,"TEXCOORD_0":26},"indices":27,"material":0}]}]}