{"asset":{"version":"2.0","generator":"Blockbench 5.1.4 glTF exporter"},"scenes":[{"nodes":[0],"name":"blockbench_export"}],"scene":0,"nodes":[{"rotation":[0.2705980500730985,-0.27059805007309845,0.6532814824381882,0.6532814824381883],"translation":[0,0.5,0],"name":"SacredSword","mesh":0}],"bufferViews":[{"buffer":0,"byteOffset":0,"byteLength":8064,"target":34962,"byteStride":12},{"buffer":0,"byteOffset":8064,"byteLength":8064,"target":34962,"byteStride":12},{"buffer":0,"byteOffset":16128,"byteLength":5376,"target":34962,"byteStride":8},{"buffer":0,"byteOffset":21504,"byteLength":1740,"target":34963}],"buffers":[{"byteLength":23244,"uri":"data:application/octet-stream;base64,"}],"accessors":[{"bufferView":0,"componentType":5126,"count":672,"max":[2.151217460632324,0.2827500104904175,0.357574999332428],"min":[-0.357574999332428,-0.2827500104904175,-2.151217460632324],"type":"VEC3"},{"bufferView":1,"componentType":5126,"count":672,"max":[1,1,1],"min":[-1,-1,-1],"type":"VEC3"},{"bufferView":2,"componentType":5126,"count":672,"max":[0.34239086508750916,0.6328125],"min":[0,0],"type":"VEC2"},{"bufferView":3,"componentType":5123,"count":870,"max":[671],"min":[0],"type":"SCALAR"}],"materials":[{"pbrMetallicRoughness":{"metallicFactor":0,"roughnessFactor":1},"alphaMode":"MASK","alphaCutoff":0.05,"doubleSided":true}],"meshes":[{"primitives":[{"mode":4,"attributes":{"POSITION":0,"NORMAL":1,"TEXCOORD_0":2},"indices":3,"material":0}]}]}