{"asset":{"version":"2.0","generator":"Blockbench 5.1.4 glTF exporter"},"scenes":[{"nodes":[0],"name":"blockbench_export"}],"scene":0,"nodes":[{"translation":[0,2.4375,0],"name":"circle","mesh":0}],"bufferViews":[{"buffer":0,"byteOffset":0,"byteLength":4968,"target":34962,"byteStride":12},{"buffer":0,"byteOffset":4968,"byteLength":4968,"target":34962,"byteStride":12},{"buffer":0,"byteOffset":9936,"byteLength":3312,"target":34962,"byteStride":8},{"buffer":0,"byteOffset":13248,"byteLength":1224,"target":34963}],"buffers":[{"byteLength":14472,"uri":"data:application/octet-stream;base64,"}],"accessors":[{"bufferView":0,"componentType":5126,"count":414,"max":[1.2804750204086304,0.6875,1.203125],"min":[-1.2804750204086304,-1.875,-1.203125],"type":"VEC3"},{"bufferView":1,"componentType":5126,"count":414,"max":[1,1,1],"min":[-1,-1,-1],"type":"VEC3"},{"bufferView":2,"componentType":5126,"count":414,"max":[0.6312960982322693,0.6015625],"min":[0,0],"type":"VEC2"},{"bufferView":3,"componentType":5123,"count":612,"max":[413],"min":[0],"type":"SCALAR"}],"materials":[{"pbrMetallicRoughness":{"metallicFactor":0,"roughnessFactor":1},"alphaMode":"MASK","alphaCutoff":0.05,"doubleSided":true}],"meshes":[{"primitives":[{"mode":4,"attributes":{"POSITION":0,"NORMAL":1,"TEXCOORD_0":2},"indices":3,"material":0}]}]}