{"asset":{"version":"2.0","generator":"Blockbench 5.1.3 glTF exporter"},"scenes":[{"nodes":[0,1],"name":"blockbench_export"}],"scene":0,"nodes":[{"name":"cylinder","mesh":0},{"name":"cylinder_selection","mesh":1}],"bufferViews":[{"buffer":0,"byteOffset":0,"byteLength":5472,"target":34962,"byteStride":12},{"buffer":0,"byteOffset":5472,"byteLength":5472,"target":34962,"byteStride":12},{"buffer":0,"byteOffset":10944,"byteLength":3648,"target":34962,"byteStride":8},{"buffer":0,"byteOffset":14592,"byteLength":1296,"target":34963},{"buffer":0,"byteOffset":15888,"byteLength":5184,"target":34962,"byteStride":12},{"buffer":0,"byteOffset":21072,"byteLength":5184,"target":34962,"byteStride":12},{"buffer":0,"byteOffset":26256,"byteLength":3456,"target":34962,"byteStride":8},{"buffer":0,"byteOffset":29712,"byteLength":1296,"target":34963}],"buffers":[{"byteLength":31008,"uri":"data:application/octet-stream;base64,"}],"accessors":[{"bufferView":0,"componentType":5126,"count":456,"max":[0.234375,0.5,0.234375],"min":[-0.234375,0,-0.234375],"type":"VEC3"},{"bufferView":1,"componentType":5126,"count":456,"max":[1,1,1],"min":[-1,-1,-1],"type":"VEC3"},{"bufferView":2,"componentType":5126,"count":456,"max":[0.5176381468772888,0.5261937379837036],"min":[0,0],"type":"VEC2"},{"bufferView":3,"componentType":5123,"count":648,"max":[455],"min":[0],"type":"SCALAR"},{"bufferView":4,"componentType":5126,"count":432,"max":[0.24687500298023224,0.47897079586982727,0.24687500298023224],"min":[-0.24687500298023224,0.021029215306043625,-0.24687500298023224],"type":"VEC3"},{"bufferView":5,"componentType":5126,"count":432,"max":[1,1,1],"min":[-1,-1,-1],"type":"VEC3"},{"bufferView":6,"componentType":5126,"count":432,"max":[0.18809999525547028,0.4898874759674072],"min":[0,0],"type":"VEC2"},{"bufferView":7,"componentType":5123,"count":648,"max":[431],"min":[0],"type":"SCALAR"}],"materials":[{"pbrMetallicRoughness":{"metallicFactor":0,"roughnessFactor":1},"alphaMode":"MASK","alphaCutoff":0.05,"doubleSided":true}],"meshes":[{"primitives":[{"mode":4,"attributes":{"POSITION":0,"NORMAL":1,"TEXCOORD_0":2},"indices":3,"material":0}]},{"primitives":[{"mode":4,"attributes":{"POSITION":4,"NORMAL":5,"TEXCOORD_0":6},"indices":7,"material":0}]}]}