{"asset":{"version":"2.0","generator":"Blockbench 5.1.3 glTF exporter"},"scenes":[{"nodes":[8],"name":"blockbench_export"}],"scene":0,"nodes":[{"name":"mesh","mesh":0},{"name":"cylinder","mesh":1},{"name":"cylinder","mesh":2},{"name":"cylinder","mesh":3},{"name":"mesh","mesh":4},{"name":"mesh","mesh":5},{"name":"mesh","mesh":6},{"name":"circle","mesh":7},{"translation":[0,0.265625,0],"name":"group","children":[0,1,2,3,4,5,6,7]}],"bufferViews":[{"buffer":0,"byteOffset":0,"byteLength":1824,"target":34962,"byteStride":12},{"buffer":0,"byteOffset":1824,"byteLength":1824,"target":34962,"byteStride":12},{"buffer":0,"byteOffset":3648,"byteLength":1216,"target":34962,"byteStride":8},{"buffer":0,"byteOffset":4864,"byteLength":456,"target":34963},{"buffer":0,"byteOffset":5320,"byteLength":1440,"target":34962,"byteStride":12},{"buffer":0,"byteOffset":6760,"byteLength":1440,"target":34962,"byteStride":12},{"buffer":0,"byteOffset":8200,"byteLength":960,"target":34962,"byteStride":8},{"buffer":0,"byteOffset":9160,"byteLength":288,"target":34963},{"buffer":0,"byteOffset":9448,"byteLength":1440,"target":34962,"byteStride":12},{"buffer":0,"byteOffset":10888,"byteLength":1440,"target":34962,"byteStride":12},{"buffer":0,"byteOffset":12328,"byteLength":960,"target":34962,"byteStride":8},{"buffer":0,"byteOffset":13288,"byteLength":288,"target":34963},{"buffer":0,"byteOffset":13576,"byteLength":1440,"target":34962,"byteStride":12},{"buffer":0,"byteOffset":15016,"byteLength":1440,"target":34962,"byteStride":12},{"buffer":0,"byteOffset":16456,"byteLength":960,"target":34962,"byteStride":8},{"buffer":0,"byteOffset":17416,"byteLength":288,"target":34963},{"buffer":0,"byteOffset":17704,"byteLength":288,"target":34962,"byteStride":12},{"buffer":0,"byteOffset":17992,"byteLength":288,"target":34962,"byteStride":12},{"buffer":0,"byteOffset":18280,"byteLength":192,"target":34962,"byteStride":8},{"buffer":0,"byteOffset":18472,"byteLength":72,"target":34963},{"buffer":0,"byteOffset":18544,"byteLength":288,"target":34962,"byteStride":12},{"buffer":0,"byteOffset":18832,"byteLength":288,"target":34962,"byteStride":12},{"buffer":0,"byteOffset":19120,"byteLength":192,"target":34962,"byteStride":8},{"buffer":0,"byteOffset":19312,"byteLength":72,"target":34963},{"buffer":0,"byteOffset":19384,"byteLength":288,"target":34962,"byteStride":12},{"buffer":0,"byteOffset":19672,"byteLength":288,"target":34962,"byteStride":12},{"buffer":0,"byteOffset":19960,"byteLength":192,"target":34962,"byteStride":8},{"buffer":0,"byteOffset":20152,"byteLength":72,"target":34963},{"buffer":0,"byteOffset":20224,"byteLength":2400,"target":34962,"byteStride":12},{"buffer":0,"byteOffset":22624,"byteLength":2400,"target":34962,"byteStride":12},{"buffer":0,"byteOffset":25024,"byteLength":1600,"target":34962,"byteStride":8},{"buffer":0,"byteOffset":26624,"byteLength":564,"target":34963}],"buffers":[{"byteLength":27188,"uri":"data:application/octet-stream;base64,"}],"accessors":[{"bufferView":0,"componentType":5126,"count":152,"max":[0.0625,0.390625,0.00014437499339692295],"min":[-0.0625,-0.05910874903202057,-0.875],"type":"VEC3"},{"bufferView":1,"componentType":5126,"count":152,"max":[1,1,1],"min":[-1,-1,-1],"type":"VEC3"},{"bufferView":2,"componentType":5126,"count":152,"max":[0.7827210426330566,0.8457146883010864],"min":[0.0005200314335525036,0.0007800459861755371],"type":"VEC2"},{"bufferView":3,"componentType":5123,"count":228,"max":[151],"min":[0],"type":"SCALAR"},{"bufferView":4,"componentType":5126,"count":120,"max":[0.171875,0.90625,-0.65625],"min":[-0.015625,0.40625,-0.84375],"type":"VEC3"},{"bufferView":5,"componentType":5126,"count":120,"max":[0.6710748672485352,1,0.6710748672485352],"min":[-0.6710748672485352,-1,-0.6710748672485352],"type":"VEC3"},{"bufferView":6,"componentType":5126,"count":120,"max":[0.7295594215393066,0.12406718730926514],"min":[0.0007307080668397248,0.0007306933403015137],"type":"VEC2"},{"bufferView":7,"componentType":5123,"count":144,"max":[119],"min":[0],"type":"SCALAR"},{"bufferView":8,"componentType":5126,"count":120,"max":[-0.015625,0.78125,-0.71875],"min":[-0.203125,0.40625,-0.90625],"type":"VEC3"},{"bufferView":9,"componentType":5126,"count":120,"max":[0.6710748672485352,1,0.6710748672485352],"min":[-0.6710748672485352,-1,-0.6710748672485352],"type":"VEC3"},{"bufferView":10,"componentType":5126,"count":120,"max":[0.7295286655426025,0.4367693066596985],"min":[0.04760570824146271,0.11010569334030151],"type":"VEC2"},{"bufferView":11,"componentType":5123,"count":144,"max":[119],"min":[0],"type":"SCALAR"},{"bufferView":12,"componentType":5126,"count":120,"max":[0.140625,0.65625,-0.84375],"min":[-0.046875,0.40625,-1.03125],"type":"VEC3"},{"bufferView":13,"componentType":5126,"count":120,"max":[0.6710748672485352,1,0.6710748672485352],"min":[-0.6710748672485352,-1,-0.6710748672485352],"type":"VEC3"},{"bufferView":14,"componentType":5126,"count":120,"max":[0.6357184052467346,0.6397058963775635],"min":[0.2976056933403015,0.1726056933403015],"type":"VEC2"},{"bufferView":15,"componentType":5123,"count":144,"max":[119],"min":[0],"type":"SCALAR"},{"bufferView":16,"componentType":5126,"count":24,"max":[0.09375,0.96875,-0.734375],"min":[0.0625,0.84375,-0.765625],"type":"VEC3"},{"bufferView":17,"componentType":5126,"count":24,"max":[1,1,1],"min":[-1,-1,-1],"type":"VEC3"},{"bufferView":18,"componentType":5126,"count":24,"max":[0.4138351082801819,0.3272154927253723],"min":[0.0006629126146435738,0.0009095072746276855],"type":"VEC2"},{"bufferView":19,"componentType":5123,"count":36,"max":[23],"min":[0],"type":"SCALAR"},{"bufferView":20,"componentType":5126,"count":24,"max":[-0.09375,0.84375,-0.796875],"min":[-0.125,0.71875,-0.828125],"type":"VEC3"},{"bufferView":21,"componentType":5126,"count":24,"max":[1,1,1],"min":[-1,-1,-1],"type":"VEC3"},{"bufferView":22,"componentType":5126,"count":24,"max":[0.5388351082801819,0.5459654927253723],"min":[0.00022737715335097164,0.3134095072746277],"type":"VEC2"},{"bufferView":23,"componentType":5123,"count":36,"max":[23],"min":[0],"type":"SCALAR"},{"bufferView":24,"componentType":5126,"count":24,"max":[0.0625,0.71875,-0.921875],"min":[0.03125,0.59375,-0.953125],"type":"VEC3"},{"bufferView":25,"componentType":5126,"count":24,"max":[1,1,1],"min":[-1,-1,-1],"type":"VEC3"},{"bufferView":26,"componentType":5126,"count":24,"max":[0.4607101082801819,0.6709654927253723],"min":[0.1100379154086113,0.4225379228591919],"type":"VEC2"},{"bufferView":27,"componentType":5123,"count":36,"max":[23],"min":[0],"type":"SCALAR"},{"bufferView":28,"componentType":5126,"count":200,"max":[0.6875,0.484375,-0.125],"min":[-0.6875,0.34375,-1.5],"type":"VEC3"},{"bufferView":29,"componentType":5126,"count":200,"max":[0.9595981240272522,1,0.9595981240272522],"min":[-0.9595981240272522,-0.9471104145050049,-0.9595981240272522],"type":"VEC3"},{"bufferView":30,"componentType":5126,"count":200,"max":[0.8420195579528809,0.7958290576934814],"min":[0.0009055555565282702,0.00023120641708374023],"type":"VEC2"},{"bufferView":31,"componentType":5123,"count":282,"max":[199],"min":[0],"type":"SCALAR"}],"materials":[{"pbrMetallicRoughness":{"metallicFactor":0,"roughnessFactor":1,"baseColorTexture":{"index":0}},"alphaMode":"MASK","alphaCutoff":0.05,"doubleSided":true}],"textures":[{"sampler":0,"source":0,"name":"candleupdate.png"}],"samplers":[{"magFilter":9728,"minFilter":9728,"wrapS":10497,"wrapT":10497}],"images":[{"mimeType":"image/png","name":"candle420.png","uri":"candle420.png"}],"meshes":[{"primitives":[{"mode":4,"attributes":{"POSITION":0,"NORMAL":1,"TEXCOORD_0":2},"indices":3,"material":0}]},{"primitives":[{"mode":4,"attributes":{"POSITION":4,"NORMAL":5,"TEXCOORD_0":6},"indices":7,"material":0}]},{"primitives":[{"mode":4,"attributes":{"POSITION":8,"NORMAL":9,"TEXCOORD_0":10},"indices":11,"material":0}]},{"primitives":[{"mode":4,"attributes":{"POSITION":12,"NORMAL":13,"TEXCOORD_0":14},"indices":15,"material":0}]},{"primitives":[{"mode":4,"attributes":{"POSITION":16,"NORMAL":17,"TEXCOORD_0":18},"indices":19,"material":0}]},{"primitives":[{"mode":4,"attributes":{"POSITION":20,"NORMAL":21,"TEXCOORD_0":22},"indices":23,"material":0}]},{"primitives":[{"mode":4,"attributes":{"POSITION":24,"NORMAL":25,"TEXCOORD_0":26},"indices":27,"material":0}]},{"primitives":[{"mode":4,"attributes":{"POSITION":28,"NORMAL":29,"TEXCOORD_0":30},"indices":31,"material":0}]}]}