{"asset":{"version":"2.0","generator":"Blockbench 5.1.3 glTF exporter"},"scenes":[{"nodes":[4],"name":"blockbench_export"}],"scene":0,"nodes":[{"rotation":[3.6082248300317583e-16,0,0,1],"translation":[0,0,-0.08156249999999998],"name":"hilt","mesh":0},{"rotation":[3.6082248300317583e-16,0,0,1],"translation":[0,0,-0.4078124999999999],"name":"cone","mesh":1},{"rotation":[-1,0,0,1.1714553645825241e-15],"translation":[0,0,0.8632031250000001],"name":"crossguard","mesh":2},{"rotation":[0.7071067811865471,0,0,0.7071067811865479],"translation":[0,0,0.8971875],"name":"cylinder","mesh":3},{"rotation":[-0.7071067811865475,0,0,0.7071067811865476],"translation":[0,0.625,0],"name":"MoonGem","children":[0,1,2,3]}],"bufferViews":[{"buffer":0,"byteOffset":0,"byteLength":6048,"target":34962,"byteStride":12},{"buffer":0,"byteOffset":6048,"byteLength":6048,"target":34962,"byteStride":12},{"buffer":0,"byteOffset":12096,"byteLength":4032,"target":34962,"byteStride":8},{"buffer":0,"byteOffset":16128,"byteLength":1440,"target":34963},{"buffer":0,"byteOffset":17568,"byteLength":1728,"target":34962,"byteStride":12},{"buffer":0,"byteOffset":19296,"byteLength":1728,"target":34962,"byteStride":12},{"buffer":0,"byteOffset":21024,"byteLength":1152,"target":34962,"byteStride":8},{"buffer":0,"byteOffset":22176,"byteLength":360,"target":34963},{"buffer":0,"byteOffset":22536,"byteLength":2976,"target":34962,"byteStride":12},{"buffer":0,"byteOffset":25512,"byteLength":2976,"target":34962,"byteStride":12},{"buffer":0,"byteOffset":28488,"byteLength":1984,"target":34962,"byteStride":8},{"buffer":0,"byteOffset":30472,"byteLength":720,"target":34963},{"buffer":0,"byteOffset":31192,"byteLength":5664,"target":34962,"byteStride":12},{"buffer":0,"byteOffset":36856,"byteLength":5664,"target":34962,"byteStride":12},{"buffer":0,"byteOffset":42520,"byteLength":3776,"target":34962,"byteStride":8},{"buffer":0,"byteOffset":46296,"byteLength":1296,"target":34963}],"buffers":[{"byteLength":47592,"uri":"data:application/octet-stream;base64,"}],"accessors":[{"bufferView":0,"componentType":5126,"count":504,"max":[0.09418000280857086,0.07476562261581421,0.8700000047683716],"min":[-0.09418000280857086,-0.07476562261581421,-0.2446874976158142],"type":"VEC3"},{"bufferView":1,"componentType":5126,"count":504,"max":[0.9942930340766907,0.9999459981918335,1],"min":[-0.9942930340766907,-0.9999459981918335,-1],"type":"VEC3"},{"bufferView":2,"componentType":5126,"count":504,"max":[0.41489726305007935,0.4147549867630005],"min":[0,0],"type":"VEC2"},{"bufferView":3,"componentType":5123,"count":720,"max":[503],"min":[0],"type":"SCALAR"},{"bufferView":4,"componentType":5126,"count":144,"max":[0.13593749701976776,0.13593749701976776,0.2446874976158142],"min":[-0.13593749701976776,-0.13593749701976776,-0.10875000059604645],"type":"VEC3"},{"bufferView":5,"componentType":5126,"count":144,"max":[0.8944271802902222,0.9910305142402649,0.7687849998474121],"min":[-0.9140823483467102,-0.9739026427268982,-0.8574929237365723],"type":"VEC3"},{"bufferView":6,"componentType":5126,"count":144,"max":[0.4140625,0.40625],"min":[0.06282968819141388,0],"type":"VEC2"},{"bufferView":7,"componentType":5123,"count":180,"max":[143],"min":[0],"type":"SCALAR"},{"bufferView":8,"componentType":5126,"count":248,"max":[0.577933132648468,0.08436062186956406,0.13593749701976776],"min":[-0.577933132648468,-0.08436062186956406,-0.027187500149011612],"type":"VEC3"},{"bufferView":9,"componentType":5126,"count":248,"max":[0.6037017107009888,0.9863170981407166,0.9924885034561157],"min":[-0.5843096971511841,-0.9840914607048035,-1],"type":"VEC3"},{"bufferView":10,"componentType":5126,"count":248,"max":[0.37005308270454407,0.3883500099182129],"min":[0.13321448862552643,0],"type":"VEC2"},{"bufferView":11,"componentType":5123,"count":360,"max":[247],"min":[0],"type":"SCALAR"},{"bufferView":12,"componentType":5126,"count":472,"max":[0.25794437527656555,7.041562557220459,0.05640624836087227],"min":[-0.25794437527656555,-0.08156249672174454,-0.05640624836087227],"type":"VEC3"},{"bufferView":13,"componentType":5126,"count":472,"max":[0.9917677044868469,0.13911254703998566,1],"min":[-0.9917682409286499,-1,-1],"type":"VEC3"},{"bufferView":14,"componentType":5126,"count":472,"max":[0.396484375,0.8907497525215149],"min":[0,0],"type":"VEC2"},{"bufferView":15,"componentType":5123,"count":648,"max":[471],"min":[0],"type":"SCALAR"}],"materials":[{"pbrMetallicRoughness":{"metallicFactor":0,"roughnessFactor":1,"baseColorTexture":{"index":0}},"alphaMode":"MASK","alphaCutoff":0.05,"doubleSided":true}],"textures":[{"sampler":0,"source":0,"name":"texture"}],"samplers":[{"magFilter":9728,"minFilter":9728,"wrapS":10497,"wrapT":10497}],"images":[{"mimeType":"image/png","uri":"data:image/png;base64,"}],"meshes":[{"primitives":[{"mode":4,"attributes":{"POSITION":0,"NORMAL":1,"TEXCOORD_0":2},"indices":3,"material":0}]},{"primitives":[{"mode":4,"attributes":{"POSITION":4,"NORMAL":5,"TEXCOORD_0":6},"indices":7,"material":0}]},{"primitives":[{"mode":4,"attributes":{"POSITION":8,"NORMAL":9,"TEXCOORD_0":10},"indices":11,"material":0}]},{"primitives":[{"mode":4,"attributes":{"POSITION":12,"NORMAL":13,"TEXCOORD_0":14},"indices":15,"material":0}]}]}